# AST/ASF file generated using VICON BodyLanguage
# -----------------------------------------------
:version 1.10
:name VICON
:units
  mass 1.0
  length 0.45
  angle deg
:documentation
   .ast/.asf automatically generated from VICON data using
   VICON BodyBuilder and BodyLanguage model FoxedUp or BRILLIANT.MOD
:root
   order TX TY TZ RX RY RZ
   axis XYZ
   position 0 0 0  
   orientation 0 0 0 
:bonedata
  begin
     id 1 
     name lhipjoint
     direction 0.606768 -0.715223 0.346827 
     length 2.41543 
     axis 0 0 0  XYZ
  end
  begin
     id 2 
     name lfemur
     direction 0.34202 -0.939693 0  
     length 7.2778  
     axis 0 0 20  XYZ
    dof rx ry rz
    limits (-160.0 20.0)
           (-70.0 70.0)
           (-60.0 70.0)
  end
  begin
     id 3 
     name ltibia
     direction 0.34202 -0.939693 0   
     length 7.61811   
     axis 0 0 20   XYZ
    dof rx
    limits (-10.0 170.0)
  end
  begin
     id 4 
     name lfoot
     direction 0.0823924 -0.226371 0.97055   
     length 2.33618   
     axis -90 7.62852e-016 20   XYZ
    dof rx rz
    limits (-45.0 90.0)
           (-70.0 20.0)
  end
  begin
     id 5 
     name ltoes
     direction 1.53554e-011 -4.21934e-011 1   
     length 1.17015   
     axis -90 7.62852e-016 20   XYZ
    dof rx
    limits (-90.0 20.0)
  end
  begin
     id 6 
     name rhipjoint
     direction -0.6077 -0.714582 0.346516   
     length 2.4176  
     axis 0 0 0  XYZ 
  end
  begin
     id 7 
     name rfemur
     direction -0.34202 -0.939693 0   
     length 7.28127   
     axis 0 0 -20   XYZ
    dof rx ry rz
    limits (-160.0 20.0)
           (-70.0 70.0)
           (-70.0 60.0)
  end
  begin
     id 8 
     name rtibia
     direction -0.34202 -0.939693 0   
     length 7.77648   
     axis 0 0 -20   XYZ
    dof rx
    limits (-10.0 170.0)
 end
 begin
     id 9 
     name rfoot
     direction -0.0809463 -0.222398 0.97159   
     length 2.37533  
     axis -90 -7.62852e-016 -20   XYZ
    dof rx rz
    limits (-45.0 90.0)
           (-20.0 70.0)
  end
  begin
     id 10 
     name rtoes
     direction -1.53568e-011 -4.21714e-011 1   
     length 1.18972   
     axis -90 -7.62852e-016 -20   XYZ
    dof rx
    limits (-90.0 20.0)
  end
  begin
     id 11 
     name lowerback
     direction 0.010968 0.991932 -0.126297   
     length 2.21698   
     axis 0 0 0   XYZ
    dof rx ry rz
    limits (-20.0 45.0)
           (-30.0 30.0)
           (-30.0 30.0)
  end
  begin
     id 12 
     name upperback
     direction 0.0167007 0.997503 -0.0686276   
     length 2.22371   
     axis 0 0 0   XYZ
    dof rx ry rz
    limits (-20.0 45.0)
           (-30.0 30.0)
           (-30.0 30.0)
  end
  begin
     id 13 
     name thorax
     direction 0.0111721 0.999885 -0.0102878   
     length 2.25242   
     axis 0 0 0   XYZ
    dof rx ry rz
    limits (-20.0 45.0)
           (-30.0 30.0)
           (-30.0 30.0)
  end
  begin
     id 14 
     name lowerneck
     direction -0.0120265 0.990428 0.137508   
     length 1.57674   
     axis 0 0 0   XYZ
    dof rx ry rz
    limits (-20.0 45.0)
           (-30.0 30.0)
           (-30.0 30.0)
  end
  begin
     id 15 
     name upperneck
     direction 0.0175669 0.998907 0.0433089   
     length 1.5618   
     axis 0 0 0   XYZ
    dof rx ry rz
    limits (-20.0 45.0)
           (-30.0 30.0)
           (-30.0 30.0)
  end
  begin
     id 16
     name head
     direction 0.00754609 0.99997 0.00185367  
     length 1.60579  
     axis 0 0 0   XYZ
    dof rx ry rz
    limits (-20.0 45.0)
           (-30.0 30.0)
           (-30.0 30.0)
  end
  begin
     id 17 
     name lclavicle
     direction 0.885866 0.429166 -0.176231  
     length 3.44967  
     axis 0 0 0   XYZ
    dof ry rz
    limits (-20.0 10.0)
           (0.0 20.0)
  end
  begin
     id 18 
     name lhumerus
     direction 1 -4.48973e-011 -1.90255e-027   
     length 5.20607   
     axis 180 -30 -90   XYZ
    dof rx ry rz
    limits (-60.0 90.0)
           (-90.0 90.0)
           (-90.0 90.0)
  end
  begin
     id 19
     name lradius
     direction 1 -4.48956e-011 9.87925e-027   
     length 3.39961   
     axis 180 -30 -90   XYZ
    dof rx
    limits (-10.0 170.0)
  end
  begin
     id 20
     name lwrist
     direction 1 -4.48985e-011 1.73247e-026   
     length 1.6998   
     axis -9.60847e-015 90 90   XYZ
    dof ry
    limits (-180.0 0.0)
 end
  begin
     id 21 
     name lhand
     direction 1 -4.48798e-011 3.46119e-026   
     length 0.519693   
     axis -2.21073e-014 90 90   XYZ
    dof rx rz
    limits (-90.0 90.0)
           (-45.0 45.0)
  end
  begin
     id 22 
     name lfingers
     direction 1 -4.48938e-011 6.92797e-026   
     length 0.41899   
     axis -4.42155e-014 90 90   XYZ
    dof rx
    limits (0.0 90.0)
  end
  begin
     id 23
     name lthumb
     direction 0.707107 -6.34952e-011 0.707107   
     length 0.601588   
     axis -90 45 6.0103e-014   XYZ
    dof rx rz
    limits (-45.0 45.0)
           (-45.0 45.0)
  end
  begin
     id 24 
     name rclavicle
     direction -0.866736 0.456792 -0.200276   
     length 3.45032  
     axis 0 0 0   XYZ 
    dof ry rz
    limits (-10.0 20.0)
           (-20.0 0.0)
  end
  begin
     id 25 
     name rhumerus
     direction -1 -4.4897e-011 8.65094e-028  
     length 5.32214   
     axis 180 30 90   XYZ
    dof rx ry rz
    limits (-90.0 60.0)
           (-90.0 90.0)
           (-90.0 90.0)
  end
  begin
     id 26 
     name rradius
     direction -1 -4.48987e-011 1.08427e-026   
     length 3.51208   
     axis 180 30 90   XYZ
    dof rx
    limits (-10.0 170.0)
  end
  begin
     id 27 
     name rwrist
     direction -1 -4.48961e-011 1.73222e-026   
     length 1.75604   
     axis -9.60847e-015 -90 -90   XYZ
    dof ry
    limits (-180.0 0.0)
  end
  begin
     id 28
     name rhand
     direction -1 -4.48895e-011 3.46314e-026   
     length 0.586681   
     axis -2.21073e-014 -90 -90   XYZ
    dof rx rz
    limits (-90.0 90.0)
           (-45.0 45.0)
  end
  begin
     id 29
     name rfingers
     direction -1 -4.48968e-011 6.92916e-026   
     length 0.472997   
     axis -4.42155e-014 -90 -90   XYZ
    dof rx
    limits (0.0 90.0)
  end
  begin
     id 30
     name rthumb
     direction -0.707107 -6.34848e-011 0.707107   
     length 0.679133   
     axis -90 -45 -6.0103e-014   XYZ
    dof rx rz
    limits (-45.0 45.0)
           (-45.0 45.0)
  end
:hierarchy
  begin
    root lhipjoint rhipjoint lowerback
    lhipjoint lfemur
    lfemur ltibia
    ltibia lfoot
    lfoot ltoes
    rhipjoint rfemur
    rfemur rtibia
    rtibia rfoot
    rfoot rtoes
    lowerback upperback
    upperback thorax
    thorax lowerneck lclavicle rclavicle
    lowerneck upperneck
    upperneck head
    lclavicle lhumerus
    lhumerus lradius
    lradius lwrist
    lwrist lhand lthumb
    lhand lfingers
    rclavicle rhumerus
    rhumerus rradius
    rradius rwrist
    rwrist rhand rthumb
    rhand rfingers
  end

#!OML:ASF H:\Dans Jumps\Project 1\Capture day 1\Session 1\subject.ASF
:FULLY-SPECIFIED
:DEGREES
61
root 0.450488 17.4622 -14.6027 7.20847 0.181861 -1.6602
lowerback 1.2524 -0.667796 0.272204
upperback 4.28407 -0.949172 1.82804
thorax 3.73152 -0.499784 1.71099
lowerneck -10.7725 0.344406 -1.66069
upperneck 29.5438 0.822865 0.133954
head 11.3479 0.200784 0.441103
rclavicle 4.96962e-015 -1.78906e-015
rhumerus -25.8789 -14.5436 -80.0761
rradius 25.5394
rwrist 29.1749
rhand -18.868 -26.2977
rfingers 7.12502
rthumb 7.43257 -56.1471
lclavicle 4.96962e-015 -1.78906e-015
lhumerus -20.6764 -1.09973 88.151
lradius 18.9682
lwrist 6.68937
lhand -26.3036 -4.25058
lfingers 7.12502
lthumb 0.252517 25.729
rfemur -18.1955 -3.05564 20.5531
rtibia 26.9773
rfoot -14.6095 -2.38495
rtoes 11.7817
lfemur -17.4878 7.80562 -18.0211
ltibia 25.0428
lfoot -12.2562 5.72432
ltoes -1.66864
62
root 0.452967 17.4623 -14.5973 7.20049 0.163527 -1.65334
lowerback 1.24102 -0.668033 0.270296
upperback 4.28084 -0.94964 1.82962
thorax 3.73466 -0.500115 1.71356
lowerneck -10.736 0.354841 -1.65687
upperneck 29.512 0.842284 0.112107
head 11.3281 0.207633 0.434602
rclavicle 4.27387e-015 -2.5842e-015
rhumerus -25.8507 -14.4881 -80.1259
rradius 25.5798
rwrist 29.1267
rhand -18.8705 -26.2816
rfingers 7.12502
rthumb 7.43014 -56.1312
lclavicle 4.27387e-015 -2.5842e-015
lhumerus -20.6668 -1.08257 88.1164
lradius 18.9667
lwrist 6.68293
lhand -26.2787 -4.156
lfingers 7.12502
lthumb 0.276547 25.8236
rfemur -18.1647 -3.03289 20.5355
rtibia 26.9712
rfoot -14.6245 -2.41164
rtoes 11.7467
lfemur -17.4511 7.83699 -18.0374
ltibia 25.0302
lfoot -12.264 5.72575
ltoes -1.68312
63
root 0.455651 17.4623 -14.5919 7.19007 0.148757 -1.64224
lowerback 1.23269 -0.670262 0.264902
upperback 4.27756 -0.952687 1.8313
thorax 3.73618 -0.501849 1.71817
lowerneck -10.7013 0.364572 -1.65202
upperneck 29.4774 0.861324 0.0872729
head 11.3077 0.214093 0.426776
rclavicle 1.0635e-014 -8.74653e-015
rhumerus -25.8265 -14.4276 -80.1733
rradius 25.6294
rwrist 29.0571
rhand -18.8668 -26.283
rfingers 7.12502
rthumb 7.43371 -56.1324
lclavicle 1.0635e-014 -8.74653e-015
lhumerus -20.6607 -1.05859 88.0831
lradius 18.9674
lwrist 6.67491
lhand -26.2338 -4.04026
lfingers 7.12502
lthumb 0.319927 25.9392
rfemur -18.1308 -3.01247 20.5122
rtibia 26.9659
rfoot -14.6393 -2.44116
rtoes 11.6945
lfemur -17.411 7.86212 -18.0586
ltibia 25.0162
lfoot -12.2727 5.72738
ltoes -1.69059
64
root 0.458547 17.4622 -14.5865 7.17695 0.135086 -1.62989
lowerback 1.2259 -0.672891 0.260595
upperback 4.27458 -0.956232 1.83205
thorax 3.73711 -0.503775 1.72122
lowerneck -10.6607 0.372911 -1.65023
upperneck 29.4355 0.877399 0.0673684
head 11.2833 0.219553 0.420863
rclavicle -8.84592e-015 5.96354e-016
rhumerus -25.8027 -14.3792 -80.2159
rradius 25.6766
rwrist 28.9836
rhand -18.8586 -26.2949
rfingers 7.12502
rthumb 7.44165 -56.144
lclavicle -8.84592e-015 5.96354e-016
lhumerus -20.6574 -1.02918 88.0496
lradius 18.9687
lwrist 6.65995
lhand -26.1957 -3.94253
lfingers 7.12502
lthumb 0.356687 26.0369
rfemur -18.094 -2.99322 20.4865
rtibia 26.9625
rfoot -14.6552 -2.47389
rtoes 11.5983
lfemur -17.3673 7.88322 -18.0816
ltibia 25.0022
lfoot -12.2825 5.73072
ltoes -1.69642
65
root 0.461547 17.4621 -14.5811 7.16396 0.123609 -1.61876
lowerback 1.21983 -0.675955 0.258052
upperback 4.27029 -0.960379 1.8341
thorax 3.73628 -0.505957 1.72462
lowerneck -10.616 0.379262 -1.65366
upperneck 29.3893 0.890693 0.0507958
head 11.2564 0.223649 0.41669
rclavicle -4.67144e-015 -1.11319e-014
rhumerus -25.7806 -14.3447 -80.2501
rradius 25.7188
rwrist 28.9136
rhand -18.8424 -26.3264
rfingers 7.12502
rthumb 7.45727 -56.175
lclavicle -4.67144e-015 -1.11319e-014
lhumerus -20.6566 -0.987748 88.0172
lradius 18.9661
lwrist 6.63114
lhand -26.1637 -3.86453
lfingers 7.12502
lthumb 0.387665 26.1149
rfemur -18.0579 -2.9702 20.4618
rtibia 26.9615
rfoot -14.6725 -2.5135
rtoes 11.4816
lfemur -17.3257 7.90233 -18.1037
ltibia 24.9909
lfoot -12.2935 5.73196
ltoes -1.70754
66
root 0.464574 17.4618 -14.5758 7.15216 0.111734 -1.61037
lowerback 1.21339 -0.678683 0.25824
upperback 4.26471 -0.964109 1.83686
thorax 3.73428 -0.507843 1.72722
lowerneck -10.5674 0.384971 -1.66289
upperneck 29.3403 0.902338 0.0407269
head 11.2276 0.227191 0.415667
rclavicle -1.59028e-015 2.88238e-014
rhumerus -25.7584 -14.3221 -80.278
rradius 25.7523
rwrist 28.8528
rhand -18.8219 -26.3715
rfingers 7.12502
rthumb 7.47709 -56.2194
lclavicle -1.59028e-015 2.88238e-014
lhumerus -20.6543 -0.94152 87.9858
lradius 18.9548
lwrist 6.59455
lhand -26.1465 -3.80054
lfingers 7.12502
lthumb 0.404253 26.1788
rfemur -18.025 -2.94105 20.4401
rtibia 26.9629
rfoot -14.6897 -2.56222
rtoes 11.331
lfemur -17.288 7.91961 -18.1228
ltibia 24.9835
lfoot -12.3054 5.73491
ltoes -1.72209
67
root 0.467517 17.4613 -14.5707 7.14169 0.099165 -1.60535
lowerback 1.20758 -0.681 0.260392
upperback 4.25785 -0.967315 1.84077
thorax 3.73056 -0.509414 1.72993
lowerneck -10.5185 0.389537 -1.67533
upperneck 29.2897 0.91206 0.0339481
head 11.1981 0.229933 0.416151
rclavicle 1.98785e-015 -1.17283e-014
rhumerus -25.7374 -14.311 -80.2994
rradius 25.7773
rwrist 28.8061
rhand -18.7997 -26.4262
rfingers 7.12502
rthumb 7.49852 -56.2733
lclavicle 1.98785e-015 -1.17283e-014
lhumerus -20.6509 -0.890034 87.9547
lradius 18.9371
lwrist 6.55115
lhand -26.1454 -3.77232
lfingers 7.12502
lthumb 0.405356 26.207
rfemur -17.996 -2.9029 20.4223
rtibia 26.9672
rfoot -14.7071 -2.61826
rtoes 11.1816
lfemur -17.2554 7.93791 -18.138
ltibia 24.9806
lfoot -12.3174 5.73593
ltoes -1.74038
68
root 0.470335 17.4609 -14.5659 7.13387 0.0864468 -1.60091
lowerback 1.19853 -0.68244 0.262123
upperback 4.25178 -0.969399 1.84445
thorax 3.72948 -0.510445 1.73263
lowerneck -10.468 0.392176 -1.68902
upperneck 29.2331 0.918423 0.0298116
head 11.1661 0.231407 0.417365
rclavicle -1.19271e-015 1.45113e-014
rhumerus -25.7175 -14.3083 -80.3167
rradius 25.7972
rwrist 28.7735
rhand -18.7833 -26.4795
rfingers 7.12502
rthumb 7.51428 -56.326
lclavicle -1.19271e-015 1.45113e-014
lhumerus -20.6418 -0.844626 87.9245
lradius 18.9149
lwrist 6.5145
lhand -26.1462 -3.7456
lfingers 7.12502
lthumb 0.404513 26.2338
rfemur -17.9725 -2.85751 20.4054
rtibia 26.9751
rfoot -14.725 -2.6798
rtoes 11.0456
lfemur -17.2285 7.95519 -18.1521
ltibia 24.9804
lfoot -12.3277 5.73647
ltoes -1.75488
69
root 0.473085 17.4603 -14.561 7.1275 0.070161 -1.59543
lowerback 1.18588 -0.682724 0.262522
upperback 4.24725 -0.969952 1.84627
thorax 3.73196 -0.510736 1.73414
lowerneck -10.4257 0.394195 -1.70035
upperneck 29.1794 0.92349 0.025893
head 11.1369 0.232541 0.418132
rclavicle -1.00386e-014 1.31198e-014
rhumerus -25.6984 -14.3075 -80.3331
rradius 25.8136
rwrist 28.7565
rhand -18.7769 -26.5151
rfingers 7.12502
rthumb 7.52047 -56.3614
lclavicle -1.00386e-014 1.31198e-014
lhumerus -20.6306 -0.803301 87.8932
lradius 18.8946
lwrist 6.48279
lhand -26.1463 -3.72295
lfingers 7.12502
lthumb 0.404481 26.2564
rfemur -17.9537 -2.80784 20.3874
rtibia 26.9866
rfoot -14.743 -2.74026
rtoes 10.9277
lfemur -17.2036 7.97239 -18.167
ltibia 24.9812
lfoot -12.3372 5.73848
ltoes -1.75987
70
root 0.475862 17.4598 -14.5562 7.12037 0.0531498 -1.58364
lowerback 1.17063 -0.6834 0.257118
upperback 4.24539 -0.97097 1.84538
thorax 3.73875 -0.511424 1.73606
lowerneck -10.389 0.395913 -1.71223
upperneck 29.1253 0.927735 0.024058
head 11.1087 0.233486 0.41967
rclavicle 7.95139e-015 -8.74653e-015
rhumerus -25.6789 -14.3141 -80.346
rradius 25.8209
rwrist 28.7638
rhand -18.7846 -26.522
rfingers 7.12502
rthumb 7.51305 -56.3686
lclavicle 7.95139e-015 -8.74653e-015
lhumerus -20.6164 -0.775252 87.8636
lradius 18.8743
lwrist 6.46341
lhand -26.153 -3.7101
lfingers 7.12502
lthumb 0.397992 26.2693
rfemur -17.9356 -2.76377 20.3622
rtibia 27.0016
rfoot -14.7642 -2.7918
rtoes 10.8388
lfemur -17.1762 7.98726 -18.189
ltibia 24.9808
lfoot -12.3475 5.7418
ltoes -1.76084
71
root 0.478646 17.4593 -14.5512 7.11325 0.0378324 -1.56729
lowerback 1.15357 -0.6847 0.248285
upperback 4.24484 -0.972766 1.84241
thorax 3.74797 -0.512587 1.73772
lowerneck -10.3606 0.397487 -1.71989
upperneck 29.075 0.932099 0.018605
head 11.0837 0.234466 0.419225
rclavicle 5.76476e-015 1.25234e-014
rhumerus -25.6586 -14.3209 -80.3575
rradius 25.8235
rwrist 28.7794
rhand -18.7936 -26.5155
rfingers 7.12502
rthumb 7.50437 -56.3624
lclavicle 5.76476e-015 1.25234e-014
lhumerus -20.6017 -0.759639 87.8363
lradius 18.8561
lwrist 6.45335
lhand -26.1613 -3.70553
lfingers 7.12502
lthumb 0.389954 26.2739
rfemur -17.9187 -2.72639 20.3318
rtibia 27.0197
rfoot -14.7885 -2.83545
rtoes 10.7812
lfemur -17.1469 7.99978 -18.2158
ltibia 24.9779
lfoot -12.3586 5.74553
ltoes -1.76472
72
root 0.481499 17.4588 -14.5464 7.10567 0.0246287 -1.54788
lowerback 1.1365 -0.687938 0.236371
upperback 4.24387 -0.977087 1.83895
thorax 3.75688 -0.515103 1.74054
lowerneck -10.3336 0.39999 -1.7275
upperneck 29.0271 0.937915 0.0127244
head 11.0599 0.236033 0.418807
rclavicle -2.18663e-015 1.66979e-014
rhumerus -25.6361 -14.3292 -80.3657
rradius 25.8152
rwrist 28.8038
rhand -18.8029 -26.4953
rfingers 7.12502
rthumb 7.49537 -56.3425
lclavicle -2.18663e-015 1.66979e-014
lhumerus -20.5912 -0.753614 87.8122
lradius 18.8414
lwrist 6.45162
lhand -26.175 -3.69685
lfingers 7.12502
lthumb 0.376711 26.2826
rfemur -17.9024 -2.69797 20.298
rtibia 27.0403
rfoot -14.8144 -2.87188
rtoes 10.724
lfemur -17.1152 8.00956 -18.2463
ltibia 24.9726
lfoot -12.3716 5.75091
ltoes -1.76665
